<svg xmlns="http://www.w3.org/2000/svg" viewBox="0 0 64 64">
  <!-- Knight helmet silhouette -->
  <!-- Helm top/dome -->
  <path fill="#000" d="
    M32 4
    C18 4 10 14 10 24
    L10 36
    C10 38 11 39 12 39
    L14 39
    L14 44
    C14 46 15 47 17 47
    L20 47
    L20 52
    C20 54 22 56 24 56
    L40 56
    C42 56 44 54 44 52
    L44 47
    L47 47
    C49 47 50 46 50 44
    L50 39
    L52 39
    C53 39 54 38 54 36
    L54 24
    C54 14 46 4 32 4
    Z
  "/>
  <!-- Visor slit -->
  <rect fill="#fff" x="16" y="26" width="32" height="4" rx="1"/>
  <!-- Visor bars -->
  <rect fill="#000" x="28" y="26" width="2" height="4"/>
  <rect fill="#000" x="34" y="26" width="2" height="4"/>
</svg>
